<?xml version="1.0" standalone="no"?>
<!DOCTYPE svg PUBLIC "-//W3C//DTD SVG 1.1//EN" "http://www.w3.org/Graphics/SVG/1.1/DTD/svg11.dtd" >
<!--
2017-6-15: Created with FontForge (http://fontforge.org)
-->
<svg xmlns="http://www.w3.org/2000/svg" xmlns:xlink="http://www.w3.org/1999/xlink" version="1.1">
<metadata>
Created by FontForge 20160407 at Thu Jun 15 17:16:01 2017
 By TylerChao
Copyright (c) 2017, TylerChao
</metadata>
<defs>
<font id="icons" horiz-adv-x="512" >
  <font-face 
    font-family="icons"
    font-weight="400"
    font-stretch="normal"
    units-per-em="512"
    panose-1="2 0 5 9 0 0 0 0 0 0"
    ascent="448"
    descent="-64"
    bbox="31.95 -32.0996 480.1 416.052"
    underline-thickness="25.6"
    underline-position="-51.2"
    unicode-range="U+2801-281B"
  />
    <missing-glyph />
    <glyph glyph-name="icon-arrow-back" unicode="&#x2801;" 
d="M321.9 412.6c4.59961 4.5 11.8994 4.5 16.5 -0.0996094c2.2998 -2.2002 3.39941 -5.2002 3.39941 -8.2002s-1.09961 -5.89941 -3.39941 -8.2002l-204.101 -204.1l204.101 -204.2c2.2998 -2.2002 3.39941 -5.2002 3.39941 -8.2002s-1.09961 -5.89941 -3.39941 -8.19922
c-4.60059 -4.5 -12 -4.5 -16.5 0l-212.301 212.3c-2.2998 2.2998 -3.39941 5.2998 -3.39941 8.2998s1.09961 6 3.39941 8.2998z" />
    <glyph glyph-name="icon-arrow-down" unicode="&#x2802;" 
d="M35.4004 257.9c-4.5 4.59961 -4.5 11.8994 0.0996094 16.5c2.2002 2.2998 5.2002 3.39941 8.2002 3.39941s5.89941 -1.09961 8.2002 -3.39941l204.1 -204.101l204.2 204.101c2.2002 2.2998 5.2002 3.39941 8.2002 3.39941s5.89941 -1.09961 8.19922 -3.39941
c4.5 -4.60059 4.5 -12 0 -16.5l-212.3 -212.301c-2.2998 -2.2998 -5.2998 -3.39941 -8.2998 -3.39941s-6 1.09961 -8.2998 3.39941z" />
    <glyph glyph-name="icon-arrow-forward" unicode="&#x2803;" 
d="M190.1 -28.5996c-4.59961 -4.5 -11.8994 -4.5 -16.5 0.0996094c-2.2998 2.2002 -3.39941 5.2002 -3.39941 8.2002s1.09961 5.89941 3.39941 8.2002l204.101 204.1l-204.101 204.2c-2.2998 2.2002 -3.39941 5.2002 -3.39941 8.2002s1.09961 5.89941 3.39941 8.19922
c4.60059 4.5 12 4.5 16.5 0l212.301 -212.3c2.2998 -2.2998 3.39941 -5.2998 3.39941 -8.2998s-1.09961 -6 -3.39941 -8.2998z" />
    <glyph glyph-name="icon-arrow-up" unicode="&#x2804;" 
d="M476.6 126.1c4.5 -4.59961 4.5 -11.8994 -0.0996094 -16.5c-2.2002 -2.2998 -5.2002 -3.39941 -8.2002 -3.39941s-5.89941 1.09961 -8.2002 3.39941l-204.1 204.101l-204.2 -204.101c-2.2002 -2.2998 -5.2002 -3.39941 -8.2002 -3.39941
s-5.89941 1.09961 -8.19922 3.39941c-4.5 4.60059 -4.5 12 0 16.5l212.3 212.301c2.2998 2.2998 5.2998 3.39941 8.2998 3.39941s6 -1.09961 8.2998 -3.39941z" />
    <glyph glyph-name="icon-arrow-updown" unicode="&#x2805;" 
d="M407.7 267.7c3.09961 -3.2002 3.09961 -8.2002 0.0996094 -11.4004c-1.59961 -1.5 -3.59961 -2.2998 -5.7002 -2.2998c-2.09961 0 -4.09961 0.700195 -5.69922 2.2998l-140.4 140.4l-140.3 -140.3c-1.60059 -1.5 -3.60059 -2.30078 -5.7002 -2.30078
s-4.09961 0.700195 -5.7002 2.30078c-3.09961 3.09961 -3.09961 8.19922 0 11.2998l146 146c1.60059 1.5 3.60059 2.2998 5.7002 2.2998s4.09961 -0.700195 5.7002 -2.2998zM407.7 116.3l-146 -146c-1.60059 -1.59961 -3.60059 -2.2998 -5.7002 -2.2998
s-4.09961 0.799805 -5.7002 2.2998l-146 146c-3.09961 3.10059 -3.09961 8.2002 0 11.2998c1.60059 1.60059 3.60059 2.30078 5.7002 2.30078s4.09961 -0.800781 5.7002 -2.30078l140.3 -140.3l140.4 140.4c1.59961 1.59961 3.59961 2.2998 5.69922 2.2998
c2.10059 0 4.10059 -0.799805 5.7002 -2.2998c3 -3.2002 3 -8.2002 -0.0996094 -11.4004z" />
    <glyph glyph-name="icon-barcode" unicode="&#x2806;" 
d="M32 59.5996v46.6006h447.9v-46.6006c0 -16.8994 -13.6006 -30.5996 -30.5 -30.5996h-386.9c-16.7998 0 -30.5 13.7002 -30.5 30.5996zM165.8 135.2v219.8h20.6006v-219.8h-20.6006zM201.7 135.2v219.8h65.3994v-219.8h-65.3994zM123.5 135.2v219.8h30.0996v-219.8
h-30.0996zM297.6 135.2v219.8h13.8008v-219.8h-13.8008zM449.5 355c16.7998 0 30.5 -13.7002 30.5 -30.5996v-189.2h-67.2002v219.8h36.7002zM321.5 135.2v219.8h50.5v-219.8h-50.5zM84.7998 355v0v-219.9h-52.7998v189.301c0 16.8994 13.7002 30.5996 30.5 30.5996h22.2998
z" />
    <glyph glyph-name="icon-cog" unicode="&#x2807;" 
d="M115.6 312.6zM128 297.9c1.5 -1.7002 0.900391 -4.40039 -1.09961 -5.5c-9.7002 -5.2002 -20.8008 -8.10059 -32.5 -8.10059c-7.5 0 -14.9004 1.2002 -22 3.60059c-0.400391 0.0996094 -0.700195 0 -0.900391 -0.400391
c-5.59961 -10.7998 -10.2998 -22.0996 -13.9004 -33.7002c-0.0996094 -0.299805 0 -0.700195 0.400391 -0.899414c22.2002 -11.9004 36.4004 -35.2002 36.4004 -61c0 -25.8008 -14.3008 -49.1006 -36.4004 -61c-0.299805 -0.200195 -0.5 -0.5 -0.400391 -0.900391
c3.60059 -11.5996 8.30078 -22.9004 13.9004 -33.7002c0.200195 -0.299805 0.599609 -0.5 0.900391 -0.399414c7.09961 2.39941 14.5 3.59961 22 3.59961c38.1992 0 69.2998 -31.0996 69.2998 -69.2998c0 -7.5 -1.2002 -14.9004 -3.60059 -22
c-0.0996094 -0.400391 0 -0.700195 0.400391 -0.900391c10.7998 -5.59961 22.0996 -10.2998 33.7002 -13.8994c0.299805 -0.100586 0.700195 0 0.899414 0.399414c11.9004 22.2002 35.2002 36.4004 61 36.4004v0c25.8008 0 49.1006 -14.2998 61 -36.4004
c0.200195 -0.299805 0.5 -0.5 0.900391 -0.399414c11.5996 3.59961 22.9004 8.2998 33.7002 13.8994c0.299805 0.200195 0.5 0.600586 0.399414 0.900391c-2.39941 7.09961 -3.59961 14.5 -3.59961 22c0 38.2002 31.0996 69.2998 69.2998 69.2998
c7.5 0 14.9004 -1.2002 22 -3.59961c0.400391 -0.100586 0.700195 0 0.900391 0.399414c5.59961 10.7998 10.2998 22.1006 13.8994 33.7002c0.100586 0.299805 0 0.700195 -0.399414 0.900391c-22.2002 11.8994 -36.4004 35.1992 -36.4004 61
c0 25.7998 14.2998 49.0996 36.4004 61c0.299805 0.199219 0.5 0.5 0.399414 0.899414c-3.59961 11.6006 -8.2998 22.9004 -13.8994 33.7002c-0.200195 0.299805 -0.600586 0.5 -0.900391 0.400391c-7.09961 -2.40039 -14.5 -3.60059 -22 -3.60059
c-38.2002 0 -69.2998 31.1006 -69.2998 69.2998c0 7.5 1.2002 14.9004 3.59961 22c0.100586 0.400391 0 0.700195 -0.399414 0.900391c-10.7998 5.59961 -22.1006 10.2998 -33.7002 13.9004c-0.299805 0.0996094 -0.700195 0 -0.900391 -0.400391
c-11.8994 -22.2002 -35.1992 -36.4004 -61 -36.4004c-25.7998 0 -49.0996 14.3008 -61 36.4004c-0.199219 0.299805 -0.5 0.5 -0.899414 0.400391c-11.6006 -3.60059 -22.9004 -8.30078 -33.7002 -13.9004c-0.299805 -0.200195 -0.5 -0.599609 -0.400391 -0.900391
c2.40039 -7.09961 3.60059 -14.5 3.60059 -22c0 -12.0996 -3.10059 -23.5 -8.60059 -33.3994c-1.39941 -2.5 -4.7998 -2.7998 -6.69922 -0.700195l-9.2002 10.4004c-1.90039 2.09961 -2.40039 5.09961 -1.40039 7.69922c1.7998 5 2.7998 10.4004 2.7998 16
c0 7.7002 -1.89941 15.4004 -5.59961 22.1006c-3 5.5 -1.09961 12.2998 4.2998 15.5c18.6006 10.8994 38.5 19.0996 59.2002 24.3994c5.90039 1.5 11.9004 -1.7998 13.7998 -7.5c6.2998 -18.7998 23.9004 -31.3994 43.7002 -31.3994s37.4004 12.5996 43.7002 31.3994
c1.89941 5.7002 8 9 13.7998 7.5c20.7002 -5.2998 40.7002 -13.5996 59.2002 -24.3994c5.39941 -3.2002 7.2998 -10 4.2998 -15.5c-3.7002 -6.7002 -5.59961 -14.4004 -5.59961 -22.1006c0 -25.5 20.6992 -46.1992 46.1992 -46.1992
c7.7002 0 15.4004 1.89941 22.1006 5.59961c5.5 3 12.2998 1.09961 15.5 -4.2998c10.8994 -18.6006 19.0996 -38.5 24.3994 -59.2002c1.5 -5.90039 -1.7998 -11.9004 -7.5 -13.7998c-18.7998 -6.2998 -31.3994 -23.9004 -31.3994 -43.7002
s12.5996 -37.4004 31.3994 -43.7002c5.7002 -1.89941 9 -7.89941 7.5 -13.7998c-5.2998 -20.7002 -13.5996 -40.7002 -24.3994 -59.2002c-3.2002 -5.39941 -10 -7.2998 -15.5 -4.2998c-6.7002 3.7002 -14.4004 5.59961 -22.1006 5.59961
c-25.5 0 -46.1992 -20.6992 -46.1992 -46.1992c0 -7.7002 1.89941 -15.4004 5.59961 -22.1006c3 -5.5 1.09961 -12.2998 -4.2998 -15.5c-18.6006 -10.8994 -38.5 -19.0996 -59.2002 -24.3994c-5.90039 -1.5 -11.9004 1.7998 -13.7998 7.5
c-6.2998 18.7998 -23.9004 31.3994 -43.7002 31.3994s-37.4004 -12.5996 -43.7002 -31.3994c-1.59961 -4.80078 -6.09961 -7.90039 -10.8994 -7.90039v0c-0.900391 0 -1.90039 0.0996094 -2.90039 0.400391c-20.7002 5.2998 -40.7002 13.5996 -59.2002 24.3994
c-5.39941 3.2002 -7.2998 10 -4.2998 15.5c3.7002 6.7002 5.59961 14.4004 5.59961 22.1006c0 25.5 -20.6992 46.1992 -46.1992 46.1992c-7.7002 0 -15.4004 -1.89941 -22.1006 -5.59961c-5.5 -3 -12.2998 -1.09961 -15.5 4.2998
c-10.8994 18.6006 -19.0996 38.5 -24.3994 59.2002c-1.5 5.90039 1.7998 11.9004 7.5 13.7998c18.7998 6.2998 31.3994 23.9004 31.3994 43.7002s-12.5996 37.4004 -31.3994 43.7002c-5.7002 1.89941 -9 7.89941 -7.5 13.7998
c5.2998 20.7002 13.5996 40.7002 24.3994 59.2002c3.2002 5.39941 10 7.2998 15.5 4.2998c6.7002 -3.7002 14.4004 -5.59961 22.1006 -5.59961c6.09961 0 11.8994 1.19922 17.2998 3.39941c2.39941 1 5.2002 0.299805 6.7998 -1.7002zM256 122.7
c-38.2002 0 -69.2998 31.0996 -69.2998 69.2998s31.0996 69.2998 69.2998 69.2998s69.2998 -31.0996 69.2998 -69.2998s-31.0996 -69.2998 -69.2998 -69.2998zM256 238.2c-25.5 0 -46.2002 -20.7002 -46.2002 -46.2002s20.7002 -46.2002 46.2002 -46.2002
s46.2002 20.7002 46.2002 46.2002s-20.7002 46.2002 -46.2002 46.2002z" />
    <glyph glyph-name="icon-home" unicode="&#x2808;" 
d="M318.9 -32c-10.2002 0 -18.7002 8.7002 -18.9004 19.2998v103.2c-0.0996094 4.5 -3.59961 8.09961 -7.90039 8.2002h-71.3994c-4.2998 -0.100586 -7.7998 -3.7002 -7.90039 -8.2002v-102.8c0 -10.7998 -8.5 -19.6006 -18.8994 -19.6006h-71.7002
c-10.4004 0 -18.9004 8.80078 -18.9004 19.6006v185.2h-61.2998c-2.7998 0 -5.2998 1 -7.2002 3c-3.7998 3.89941 -3.7998 10.5996 0 14.5l213.8 222.6l0.200195 0.0996094c1.90039 1.90039 4.2998 2.90039 7 2.90039s5.2002 -1.09961 7 -3l214.3 -223
c3.90039 -4.09961 3.90039 -10.5 0 -14.5996c-1.89941 -1.90039 -4.39941 -3 -7 -3c-2.69922 0 -5.19922 1.09961 -7 3l-207.399 215.8l-190 -197.7h38.7002c10.0996 0 18.3994 -8.2002 18.7998 -18.7998v-177.7c0 -4.59961 3.59961 -8.40039 8 -8.40039h53.7002
c4.39941 0 8 3.80078 8 8.40039v105v0.0996094c1.19922 9.7002 8.89941 16.9004 18.2998 17.1006h90.5c9.5 -0.200195 17.0996 -7.40039 18.2998 -17.1006v-0.0996094v-105c0 -4.59961 3.59961 -8.40039 8 -8.40039h53.7998c4.40039 0 8 3.80078 8 8.40039v158.2
c0 5.7002 4.5 10.3994 10 10.3994s10 -4.59961 10 -10.3994v-167.601c0 -10.7998 -8.5 -19.5996 -18.8994 -19.5996h-72v0z" />
    <glyph glyph-name="icon-info" unicode="&#x2809;" 
d="M371.8 287.7v0c0 -34.2998 -13.2998 -66.6006 -37.3994 -90.7002c-24.3008 -24.2002 -56.5 -37.5996 -90.8008 -37.5996v0v0c-98.0996 0 -177.899 -79.8008 -177.899 -177.9c0 -7.5 -6.10059 -13.5 -13.5 -13.5c-7.5 0 -13.5 6.09961 -13.5 13.5
c0 27.5996 5.39941 54.4004 16.0996 79.7002c10.2998 24.3994 25.1006 46.2998 43.9004 65.0996s40.7002 33.6006 65.0996 43.9004c25.2002 10.7002 52.1006 16.0996 79.7002 16.0996v0v0c55.9004 0 101.4 45.5 101.4 101.4c0 55.8994 -45.5 101.399 -101.4 101.399
s-101.4 -45.5 -101.4 -101.399c0 -21 6.40039 -41.2002 18.4004 -58.2998c4.2002 -6 2.7998 -14.4004 -3.2998 -18.7002c-6 -4.2002 -14.4004 -2.7998 -18.7002 3.2998c-15.2002 21.5996 -23.2998 47.0996 -23.2998 73.7002c0 34.2002 13.3994 66.5 37.5996 90.7002
c24.2002 24.1992 56.4004 37.5996 90.7002 37.5996s66.5 -13.4004 90.7002 -37.5c24.2998 -24.2998 37.5996 -56.5 37.5996 -90.7998zM267.6 119.8v0c0 7.40039 6 13.4004 13.5 13.5h178.7c7.40039 0 13.4004 -6.09961 13.4004 -13.5c0 -7.5 -6 -13.5 -13.4004 -13.5h-178.8
c-7.40039 0 -13.4004 6.10059 -13.4004 13.5zM459.8 64.7002v0c7.5 0 13.5 -6 13.5 -13.5s-6 -13.5 -13.3994 -13.5h-178.801c-7.39941 0 -13.3994 6.09961 -13.3994 13.5c0 7.5 6 13.5 13.3994 13.5h178.7zM459.8 -3.7998v0c7.5 0 13.5 -6 13.5 -13.5
s-6 -13.5 -13.3994 -13.5h-178.801c-7.39941 0 -13.3994 6.09961 -13.3994 13.5c0 7.5 6 13.5 13.3994 13.5h178.7z" />
    <glyph glyph-name="icon-location" unicode="&#x280a;" 
d="M255.9 156.6c-42.3008 0 -76.8008 34.5 -76.8008 76.8008c0 42.2998 34.5 76.7998 76.8008 76.7998c42.2998 0 76.7998 -34.5 76.7998 -76.7998c0 -42.3008 -34.5 -76.8008 -76.7998 -76.8008zM255.9 289.9c-31.2002 0 -56.6006 -25.4004 -56.6006 -56.6006
s25.4004 -56.5996 56.6006 -56.5996c31.1992 0 56.5996 25.3994 56.5996 56.5996s-25.4004 56.6006 -56.5996 56.6006zM256.4 -32h-0.5h-0.600586c-2.7002 0 -5.2998 1 -7.09961 2.7998c-1.10059 1.10059 -116.101 116.2 -116.7 116.9
c-40.2998 35.7998 -63.5 86.8994 -63.5 140.399c0.0996094 103.601 84.2998 187.9 187.9 187.9c43.1992 0 84 -14.5 117.899 -42.2002l0.100586 -0.0996094c1 -0.799805 3.2998 -3 3.19922 -7.2998c-0.199219 -5.90039 -4.39941 -10.1006 -10.0996 -10.1006
c-3.40039 0 -7.09961 2.7998 -7.09961 2.90039c-30.1006 23.8994 -66.1006 36.7002 -104.101 36.7002c-92.3994 0 -167.6 -75.3008 -167.6 -167.7c0 -45 18.3994 -85.2002 57.8994 -126.601l101.301 -101.399c2.2998 -2.2002 5.2998 -3.40039 8.5 -3.40039
c3.19922 0 6.2998 1.2002 8.5 3.5l101.1 101.3c38.5 36.9004 58 79.5 58 126.601c0 27.3994 -6.7998 54.5996 -19.5996 78.7002c-0.300781 0.799805 -1 2.89941 -0.900391 4.09961c0 5.7002 4.5 10.2002 10.0996 10.2002h0.200195c6.2002 0 9.2002 -6.2998 9.2002 -6.2998
c14.0996 -27.2002 21.2998 -56.3008 21.2998 -86.7002c0 -53.5 -23 -104.7 -63.2002 -140.3l-0.0996094 -0.100586c-0.700195 -0.700195 -115.7 -115.8 -116.8 -117c-2 -1.7998 -4.5 -2.7998 -7.2998 -2.7998v0z" />
    <glyph glyph-name="icon-lock" unicode="&#x280b;" 
d="M256 57.0996c-12.7998 0 -23.2002 10.4004 -23.2002 23.2002v29.6006c-15.2002 8.59961 -24.5996 25.0996 -24 42.7998c0.900391 24.2998 20.6006 44.2998 44.9004 45.3994c27 1.2002 49.3994 -20.3994 49.3994 -47.1992c0 -17.3008 -9.19922 -32.8008 -24 -41.1006
v-29.5c0.100586 -12.7998 -10.2998 -23.2002 -23.0996 -23.2002zM256 180.1h-1.40039c-15 -0.699219 -27.1992 -13 -27.6992 -28c-0.400391 -12.1992 6.89941 -23.5 18.2998 -28.0996l5.7002 -2.2998v-41.2998c0 -2.80078 2.2998 -5.10059 5.09961 -5.10059
s5.09961 2.2998 5.09961 5.10059v41.2998l5.7002 2.2998c11.1006 4.40039 18.2998 15.0996 18.2998 27c0 16 -13.0996 29.0996 -29.0996 29.0996zM256 287.1c88 0 159.5 -71.6992 159.5 -159.6s-71.5 -159.5 -159.5 -159.5s-159.5 71.5996 -159.7 159.6
c0 52.7002 25.7998 99.5 65.2998 128.601v0.799805v63.5996c0 25.9004 10.8008 51.1006 29.6006 69.1006c18.7002 18 43.2002 27.2002 68.8994 26.0996c50.6006 -2.09961 90.2002 -43.5 90.2002 -94.2002c0 -5.5 -4.5 -10 -10 -10s-10 4.5 -10 10
c0 39.9004 -31.2002 72.5 -71 74.2002c-20.2002 0.900391 -39.3994 -6.39941 -54.2002 -20.5c-14.8994 -14.2002 -23.3994 -34.0996 -23.3994 -54.5996v-52c22.2002 11.7998 47.5 18.3994 74.2998 18.3994zM256 -11.9004c76.9004 0 139.5 62.5 139.5 139.5
c0 76.9004 -62.5996 139.5 -139.5 139.5s-139.5 -62.5996 -139.5 -139.5c0 -76.8994 62.5996 -139.5 139.5 -139.5z" />
    <glyph glyph-name="icon-man" unicode="&#x280c;" 
d="M285.8 414.8c0 0 -117 17.7002 -133.899 -83.2998v-53s-21.7002 -34.0996 25.2998 -72c0 0 30.2002 -35.2998 32.5996 -45.4004c0 0 13.2998 -37.8994 -54.2998 -75.6992c0 0 -88.7002 -27.8008 -108.6 -84.5v-14.7002c0 -10.1006 8.09961 -18.2002 18 -18.2002h231.699
h153.301c7.7998 0 14.2998 6 15 13.7998c0.899414 10.9004 -1 26.9004 -10.6006 44.1006c-15.7998 28.1992 -125 70.7998 -125 70.7998s-60.2998 34.0996 -18.0996 75.7002c0 0 16.8994 20.1992 21.7002 34.0996c0 0 45.8994 26.5 25.2998 68.2002v64.3994
s3.59961 35.3008 -32.6006 34.1006c0 0 -1.19922 27.7002 -39.7998 41.5996z" />
    <glyph glyph-name="icon-order" unicode="&#x280d;" 
d="M89.5 -32c-10.2002 0 -18.5996 8.5 -18.5996 18.7998v410.4c0 10.3994 8.39941 18.7998 18.5996 18.7998h219.5h0.400391c2.5 0 5.09961 -1.09961 6.89941 -2.90039l121.8 -123.899c1.40039 -1.2998 2.90039 -4.10059 2.90039 -7.40039v-242
c0 -5.5 -4.2998 -10 -9.7002 -10c-2.59961 0 -5.2002 1 -6.89941 2.90039c-1.90039 1.89941 -2.80078 4.39941 -2.80078 7.09961v214.601c0 4.39941 -3.19922 7.69922 -7.5 7.69922h-105.3c-5.39941 0 -9.7998 4.80078 -9.7998 10.2002v0.100586v0.599609v115.5
c0 4.40039 -3.59961 7.59961 -7.90039 7.59961h-192.8c-4.2998 0 -7.7002 -3.19922 -7.7002 -7.59961v-392.6c0 -4.40039 3.40039 -7.90039 7.7002 -7.90039h332.8c5.40039 0 9.80078 -4.5 9.80078 -10s-4.40039 -10 -9.80078 -10h-341.6zM416.7 281.1l-99.1006 101v-101
h99.1006zM141.9 191c-5.40039 0 -9.7002 4.09961 -9.7002 9.5s4.2998 9.5 9.7002 9.5h227.199c5.40039 0 9.7002 -4.09961 9.7002 -9.5s-4.2998 -9.5 -9.7002 -9.5h-227.199zM141.9 128c-5.40039 0 -9.7002 4.59961 -9.7002 10s4.2998 10 9.7002 10h227.199
c5.40039 0 9.7002 -4.59961 9.7002 -10s-4.2998 -10 -9.7002 -10h-227.199zM141.9 66c-5.40039 0 -9.7002 4.59961 -9.7002 10s4.2998 10 9.7002 10h227.199c2.60059 0 5.2002 -1.2998 6.90039 -3.2002c1.7998 -1.89941 2.7002 -4.39941 2.7002 -6.89941
c0 -5.40039 -4.2998 -9.90039 -9.7002 -9.90039h-227.1v0z" />
    <glyph glyph-name="icon-package" unicode="&#x280e;" 
d="M216.6 131.8c-4.09961 1.7002 -6.59961 5.2002 -6.59961 9v96.2002h-158v-239c0 -5.5 4.5 -10 10 -10h388c5.5 0 10 4.5 10 10v200.7c0 5.2998 4 10 9.2998 10.2998c5.7998 0.400391 10.7002 -4.2002 10.7002 -10v-211c0 -11 -9 -20 -20 -20h-408c-11 0 -20 9 -20 20v408
c0 11 9 20 20 20h408c11 0 20 -9 20 -20v-139c0 -11 -9 -20 -20 -20h-158.1v-96.0996c0 -3.90039 -2.60059 -7.40039 -6.60059 -9c-1.5 -0.700195 -3.2002 -1 -4.89941 -1c-2.60059 0 -5.2002 0.799805 -7.40039 2.19922l-27 18.9004l-27 -18.9004
c-3.5 -2.39941 -8.2998 -2.89941 -12.4004 -1.2998zM460 386c0 5.5 -4.5 10 -10 10h-148.1v-139h148.1c5.5 0 10 4.5 10 10v119zM278.7 396h-45.4004v-234.1l15.4004 10.6992c2.09961 1.60059 4.7002 2.30078 7.2998 2.30078s5.2002 -0.700195 7.2998 -2.2002
l15.4004 -10.7002v234zM52 257h158v139h-148c-5.5 0 -10 -4.5 -10 -10v-129zM285.5 272zM226.5 272zM285.5 257zM226.5 257zM285.5 244zM430.5 8.5h-82c-5.5 0 -10 4.5 -10 10s4.5 10 10 10h82c5.5 0 10 -4.5 10 -10s-4.5 -10 -10 -10z" />
    <glyph glyph-name="icon-panel" unicode="&#x280f;" 
d="M480 369h0.0996094v-5.09961c0 -7.30078 -5.89941 -13.2002 -13.1992 -13.2002v0c-7.30078 0 -13.2002 5.89941 -13.2002 13.2002v0.299805c0 14.0996 -11.4004 25.3994 -25.4004 25.3994h-341.6c-15.7002 0 -28.2998 -12.5996 -28.2998 -28.2998v-338.6
c0 -15.6006 12.6992 -28.2998 28.2998 -28.2998h338.6c15.6006 0 28.2998 12.6992 28.2998 28.2998v238.5c0 7.2998 5.90039 13.2002 13.2002 13.2002v0c7.2998 0 13.2002 -5.90039 13.2002 -13.2002v-246.2c0 -26 -21.0996 -47 -47 -47h-354c-26 0 -47 21.0996 -47 47v354
c0 26 21 47 47 47h354c26 0 47 -21.0996 47 -47zM137.4 146.4v0c-19.4004 5.69922 -33.8008 23.5996 -33.8008 44.7998s14.4004 39.0996 33.8008 44.7998v74.5996h26.2998v-74.5996c19.5 -5.7002 33.7998 -23.5996 33.7998 -44.7998s-14.4004 -39.1006 -33.7998 -44.7998
v-72.9004h-26.2998v72.9004zM150.6 211.8c-11.3994 0 -20.5996 -9.2998 -20.5996 -20.5996c0 -11.4004 9.2002 -20.6006 20.5996 -20.6006c11.4004 0 20.6006 9.30078 20.6006 20.6006s-9.2002 20.5996 -20.6006 20.5996zM242.8 202.4
c-19.3994 5.69922 -33.7998 23.5996 -33.7998 44.7998s14.4004 39.0996 33.7998 44.7998v18.5996h26.2998v-18.5996c19.5 -5.7002 33.8008 -23.5996 33.8008 -44.7998s-14.4004 -39.1006 -33.8008 -44.7998v-128.9h-26.2998v128.9zM256 267.8
c-11.4004 0 -20.5996 -9.2998 -20.5996 -20.5996s9.19922 -20.6006 20.5996 -20.6006s20.5996 9.30078 20.5996 20.6006s-9.19922 20.5996 -20.5996 20.5996zM361.4 62.4004c-25.9004 0 -46.9004 21.0996 -47 47c0 21.1992 14.3994 39.0996 33.7998 44.7998v156.399h26.2998
v-156.5c19.5 -5.69922 33.7998 -23.5 33.7998 -44.7998c0 -25.7998 -21 -46.8994 -46.8994 -46.8994zM361.4 130c-11.3008 0 -20.6006 -9.2998 -20.6006 -20.5996c0 -11.3008 9.2998 -20.6006 20.6006 -20.6006c11.2998 0 20.5996 9.2998 20.5996 20.6006
c0 11.2998 -9.2002 20.5996 -20.5996 20.5996z" />
    <glyph glyph-name="icon-paper" unicode="&#x2810;" 
d="M431.2 416c5.39941 0 9.7998 -4.5 9.7998 -10s-4.40039 -10 -9.7998 -10h-332.9c-4.2998 0 -7.7002 -3.5 -7.7002 -7.90039v-392.6c0 -4.40039 3.40039 -7.59961 7.7002 -7.59961h192.8c4.30078 0 7.90039 3.19922 7.90039 7.59961v115.5v0.599609v0.100586
c0 5.39941 4.40039 10.2002 9.7998 10.2002h105.3c4.30078 0 7.5 3.2998 7.5 7.69922v214.601c0 2.7002 0.900391 5.2002 2.80078 7.09961c1.69922 1.90039 4.2998 2.90039 6.89941 2.90039c5.40039 0 9.7002 -4.5 9.7002 -10v-242
c0 -3.2998 -1.5 -6.10059 -2.90039 -7.40039l-121.8 -123.899c-1.7998 -1.80078 -4.39941 -2.90039 -6.89941 -2.90039h-0.400391h-219.5c-10.2002 0 -18.5996 8.40039 -18.5996 18.7998v410.4c0 10.2998 8.39941 18.7998 18.5996 18.7998h341.7zM317.5 102.9v-101
l99.0996 101h-99.0996zM369 168.3c5.40039 0 9.7002 -4.09961 9.7002 -9.5c0 -5.39941 -4.2998 -9.5 -9.7002 -9.5h-227.1c-5.40039 0 -9.7002 4.10059 -9.7002 9.5c0 5.40039 4.2998 9.5 9.7002 9.5h227.1zM245.8 354.3c5.40039 0 9.7002 -4.09961 9.7002 -9.5
c0 -5.39941 -4.2998 -9.5 -9.7002 -9.5h-103.899c-5.40039 0 -9.7002 4.10059 -9.7002 9.5c0 5.40039 4.2998 9.5 9.7002 9.5h103.899zM369.2 231.3c5.39941 0 9.7002 -4.59961 9.7002 -10c0 -5.39941 -4.30078 -10 -9.7002 -10h-227.3
c-5.40039 0 -9.7002 4.60059 -9.7002 10c0 5.40039 4.2998 10 9.7002 10h227.3zM141.9 293.3h227.1c5.40039 0 9.7002 -4.5 9.7002 -9.89941c0 -2.5 -0.900391 -5 -2.7002 -6.90039c-1.7002 -1.90039 -4.2998 -3.2002 -6.90039 -3.2002h-227.199
c-5.40039 0 -9.7002 4.60059 -9.7002 10c0 5.40039 4.39941 10 9.7002 10v0z" />
    <glyph glyph-name="icon-password" unicode="&#x2811;" 
d="M395.4 -32h-278.801c-28 0 -50.6992 25.0996 -50.6992 56v140c0 30.9004 22.6992 56 50.6992 56v42c0 85.0996 62.4004 154 139.4 154s139.4 -68.9004 139.4 -154v-0.900391h-0.200195c-0.400391 -7.2998 -5.7998 -13.0996 -12.5 -13.0996s-12.1006 5.7998 -12.5 13.0996
h-0.200195v0.900391c0 69.5996 -51.0996 126 -114 126c-63 0 -114 -56.4004 -114 -126v-42h253.4c28 0 50.6992 -25.0996 50.6992 -56v-140c0 -30.9004 -22.6992 -56 -50.6992 -56v0zM420.7 164c0 15.5 -11.2998 28 -25.2998 28h-278.801c-14 0 -25.2998 -12.5 -25.2998 -28
v-140c0 -15.5 11.2998 -28 25.2998 -28h278.801c14 0 25.2998 12.5 25.2998 28v140v0zM268.7 82.7998v-44.7998c0 -7.7002 -5.7002 -14 -12.7002 -14s-12.7002 6.2998 -12.7002 14v44.7998c-14.7002 5.7998 -25.2998 20.9004 -25.2998 39.2002c0 23.2002 17 42 38 42
s38 -18.7998 38 -42c0 -18.2002 -10.5996 -33.4004 -25.2998 -39.2002v0zM256 136c-7 0 -12.7002 -6.2998 -12.7002 -14s5.7002 -14 12.7002 -14s12.7002 6.2998 12.7002 14s-5.7002 14 -12.7002 14v0z" />
    <glyph glyph-name="icon-refresh" unicode="&#x2812;" 
d="M414.4 350.4c42.2998 -42.3008 65.5996 -98.6006 65.5996 -158.4s-23.2998 -116.1 -65.5996 -158.4c-42.3008 -42.2998 -98.6006 -65.5996 -158.4 -65.5996s-116.1 23.4004 -158.4 65.5996c-42.2998 42.3008 -65.5996 98.6006 -65.5996 158.4
c0 5.5 4.40039 10.0996 10 10.0996s10.0996 -4.59961 10.0996 -10.0996c0 -112.5 91.4004 -203.9 203.9 -203.9s204 91.4004 204 203.9s-91.4004 203.9 -203.9 203.9c-35.5 0 -70.2998 -9.30078 -100.899 -26.7002c-27.7998 -15.9004 -51.7998 -38.2002 -69.4004 -65
h45.2998c5.10059 0 9.10059 -4 9.10059 -9.10059c0 -5.09961 -4.10059 -9.09961 -9.10059 -9.09961h-66.3994c-5.10059 0 -9.10059 4.09961 -9.10059 9.09961v66.4004c0 5.09961 4 9.09961 9.10059 9.09961c5.09961 0 9.09961 -4.09961 9.09961 -9.09961v-39.2002
c18.7998 26.2002 43.2998 48.4004 71.4004 64.4004c33.5996 19.0996 71.7998 29.2998 110.8 29.2998c59.7998 0 116.1 -23.4004 158.4 -65.5996z" />
    <glyph glyph-name="icon-replace" unicode="&#x2813;" 
d="M255.9 -32c-11.8008 0 -23.3008 3 -33.4004 8.7998l-80.5996 46.7002c-59 34.2002 -89.9004 112.1 -89.9004 171.4v133.8c0 19.7998 13.2998 37.2998 32.4004 42.7002l153.8 42.2998c5.7998 1.5 11.7002 2.2998 17.7002 2.2998c6.09961 0 12 -0.799805 17.6992 -2.2998
l154.101 -42.2998c19.0996 -5.30078 32.3994 -22.8008 32.2998 -42.6006v-133.8c0 -51.2998 -22 -107.8 -56 -144.2c-1.90039 -2 -4.59961 -3.2002 -7.40039 -3.2002c-2.5 0 -5.09961 1 -6.89941 2.7002c-2 1.90039 -3.10059 4.40039 -3.2002 7.10059
c-0.0996094 2.69922 0.900391 5.2998 2.7998 7.19922c30.7002 32.6006 50.5 83.7002 50.5 130.101v134c0 10.5996 -7.2002 20 -17.5996 22.7998l-91.5 25.0996l-62.4004 17.2002c-4.09961 1.2002 -8.09961 1.7002 -12.2998 1.7002s-8.2002 -0.599609 -12.2998 -1.7002
l-153.9 -42.2998c-10.2998 -2.90039 -17.5996 -12.2002 -17.5996 -22.7998v-133.9c0 -29 7.7002 -60.2998 21.5996 -88c14.7998 -29.3994 34.9004 -52.2002 58.1006 -65.7002l80.6992 -46.6992c6.90039 -4 14.9004 -6.10059 23.2002 -6.10059
s16.2998 2.10059 23.2002 6.10059l58.0996 33.5c1.5 0.899414 3.2002 1.2998 5.10059 1.2998c3.59961 0 7 -2 8.89941 -5.10059c1.40039 -2.39941 1.7002 -5.09961 1 -7.69922c-0.699219 -2.60059 -2.39941 -4.7002 -4.7998 -6.2002l-58.0996 -33.5
c-10 -5.7002 -21.5 -8.7002 -33.2998 -8.7002zM186.1 187.6c-4.89941 -2.69922 -10 -5.19922 -15.1992 -7.2998c-2.7002 -1.2002 -5.10059 -1.7998 -7 -1.7002c-2 0.100586 -3.40039 1.30078 -4.40039 3.60059c-1.2002 3.09961 -1.40039 5.7002 -0.400391 7.59961
c0.900391 2 3.2002 3.7002 6.7002 5.2002s7 3.09961 10.4004 4.7998c3.39941 1.7002 6.7002 3.5 10 5.40039v45.0996h-16.9004c-6.09961 0 -9.09961 2.60059 -9.09961 7.7002c0 2.59961 0.799805 4.5 2.39941 5.7002c1.60059 1.2002 3.90039 1.7998 6.7002 1.7998h16.9004
v29.2998c0 2.7998 0.599609 4.90039 1.89941 6.2002c1.30078 1.2998 3.10059 1.90039 5.40039 1.90039c5.09961 0 7.7002 -2.7002 7.7002 -8.10059v-29.2998h12.3994c2.7002 0 4.90039 -0.599609 6.7002 -1.7998s2.60059 -3.10059 2.60059 -5.7002
s-0.800781 -4.5 -2.5 -5.7998c-1.7002 -1.2998 -4 -1.90039 -6.80078 -1.90039h-12.3994v-35c1.5 1.10059 2.89941 2.2002 4.2002 3.40039c1.2998 1.09961 2.59961 2.2998 4 3.39941c2.59961 2.30078 4.89941 3.5 7.09961 3.5s4 -1 5.5 -3
c1.59961 -2.19922 2.2998 -4.19922 2.09961 -6c-0.199219 -1.7998 -1.69922 -3.89941 -4.39941 -6.19922c-3 -2.60059 -6 -5 -9 -7.2002s-6.2002 -4.40039 -9.5 -6.60059v-66.8994c0 -8.40039 -2.90039 -14 -8.7002 -16.7002s-13.2002 -2.5 -22.2002 0.599609
c-3 0.900391 -4.89941 2.5 -5.7998 4.60059c-0.900391 2.09961 -0.700195 4.59961 0.5 7.39941c1.09961 2.30078 2.59961 3.60059 4.5 3.90039s4 -0.0996094 6.2998 -1c3.90039 -1.5 6.60059 -2.09961 8.10059 -1.7998s2.19922 2.2002 2.19922 5.7002v55.1992zM298.3 170.5
c6.5 -11.0996 13.7998 -20.5996 22 -28.5c8.10059 -7.90039 16.9004 -14.2002 26.2002 -18.9004c2.2002 -1.09961 3.90039 -2.5 5.09961 -4.2998c1.2002 -1.7998 1.40039 -3.89941 0.400391 -6.5c-1.2002 -3 -2.7002 -4.7002 -4.59961 -5.09961
c-1.80078 -0.400391 -4.30078 0.0996094 -7.40039 1.39941c-11.0996 5.2002 -21.7002 13.1006 -31.5996 24c-10 10.8008 -18.7002 23.4004 -26.3008 37.6006c-2.59961 -7.2002 -5.69922 -13.7002 -9.19922 -19.6006c-3.60059 -5.89941 -7.60059 -11.2998 -12.1006 -16.2998
c-4.5 -4.89941 -9.5 -9.5 -14.8994 -13.5996c-5.5 -4.10059 -11.4004 -8.10059 -17.8008 -11.9004c-2.69922 -1.39941 -5.19922 -1.7002 -7.2998 -1.09961c-2.2002 0.599609 -3.7002 2.09961 -4.5 4.39941c-0.700195 2.40039 -0.5 4.5 0.400391 6.30078
c0.899414 1.7998 2.39941 3.2998 4.5 4.69922c11.0996 6.40039 20.2998 13.3008 27.7002 20.8008c7.39941 7.5 13.0996 16.3994 17.5 26.5h-43.3008c-2.69922 0 -4.89941 0.5 -6.59961 1.59961s-2.5 2.90039 -2.5 5.5c0 2.7002 0.799805 4.59961 2.5 5.7998
c1.7002 1.10059 3.90039 1.7002 6.59961 1.7002h8.30078v48.2002v4.59961c0 1.40039 0.0996094 2.7002 0.399414 3.7998c-1.89941 -1.09961 -3.5 -1.39941 -4.89941 -0.899414c-1.40039 0.5 -2.60059 1.2998 -3.7002 2.5c-1.5 1.7998 -2 3.7998 -1.60059 6
c0.400391 2.2002 2.40039 5 5.90039 8.2002c5.7998 5.2998 11.2998 11.0996 16.4004 17.5c5.09961 6.39941 9.5 13.1992 13.2998 20.5c2.2002 4.19922 4.2998 6.69922 6.2998 7.59961s4.2002 0.799805 6.5 -0.299805c2.40039 -1.10059 3.90039 -2.5 4.2998 -4.40039
c0.400391 -1.7998 -0.299805 -4.59961 -2 -8.2002h34.6006c3.69922 0 6.59961 -0.5 8.69922 -1.59961c2.2002 -1.09961 3.7002 -2.5 4.7002 -4.2002c0.900391 -1.7002 1.2998 -3.7002 1.10059 -6c-0.200195 -2.2998 -1 -4.7002 -2.30078 -7.09961
c-1.89941 -3.40039 -3.89941 -6.7002 -6.09961 -10.1006c-2.2002 -3.2998 -4.59961 -6.69922 -7.2998 -10.2998h15.5c3.2998 0 6 -0.200195 8.2002 -0.700195c2.19922 -0.5 4 -1.39941 5.2998 -2.69922c1.2998 -1.40039 2.2002 -3.2002 2.7002 -5.40039
s0.799805 -5.2002 0.799805 -8.7998v-48h6.5c2.7998 0 5 -0.5 6.5 -1.5s2.2002 -2.90039 2.2002 -5.60059c0 -5 -2.90039 -7.5 -8.7002 -7.5zM262.9 275.6c-6.60059 -9.39941 -13.6006 -17.5996 -20.7002 -24.7998c0.799805 0.100586 1.7002 0.200195 2.5 0.200195h2.89941
h38.4004c3.2998 4.2002 5.90039 7.7002 8 10.5996c2.09961 2.80078 4.2002 5.60059 6.2002 8.30078c1.89941 2.59961 2.59961 4.19922 2 4.7998c-0.5 0.599609 -2.10059 0.899414 -4.7002 0.899414h-34.5996zM248.7 236.4c-1.10059 0 -1.7998 -0.300781 -2 -0.900391
c-0.299805 -0.599609 -0.400391 -1.5 -0.400391 -2.5v-47.7998h24.7002c1.90039 7 3.2998 14.7998 4.2998 23.2002c0.900391 8.39941 1.60059 17.7998 1.7998 28.0996h-28.3994v-0.0996094zM292.6 236.4c-0.299805 -10.2002 -0.899414 -19.4004 -1.89941 -27.8008
c-1 -8.2998 -2.40039 -16.1992 -4.2002 -23.5l36.4004 0.200195v47.7002c0 2.2998 -0.800781 3.5 -2.40039 3.5h-27.9004v-0.0996094z" />
    <glyph glyph-name="icon-return" unicode="&#x2814;" 
d="M255.9 -32c-11.8008 0 -23.3008 3 -33.4004 8.7998l-80.5996 46.7002c-59 34.2002 -89.9004 112.1 -89.9004 171.4v133.8c0 19.7998 13.2998 37.2998 32.4004 42.7002l153.8 42.2998c5.7998 1.5 11.7002 2.2998 17.7002 2.2998c6.09961 0 12 -0.799805 17.6992 -2.2998
l154.101 -42.2998c19.0996 -5.30078 32.3994 -22.8008 32.2998 -42.6006v-133.8c0 -51.2998 -22 -107.8 -56 -144.2c-1.90039 -2 -4.59961 -3.2002 -7.40039 -3.2002c-2.5 0 -5.09961 1 -6.89941 2.7002c-2 1.90039 -3.10059 4.40039 -3.2002 7.10059
c-0.0996094 2.69922 0.900391 5.2998 2.7998 7.19922c30.7002 32.6006 50.5 83.7002 50.5 130.101v134c0 10.5996 -7.2002 20 -17.5996 22.7998l-91.5 25.0996l-62.4004 17.2002c-4.09961 1.2002 -8.09961 1.7002 -12.2998 1.7002s-8.2002 -0.599609 -12.2998 -1.7002
l-153.9 -42.2998c-10.2998 -2.90039 -17.5996 -12.2002 -17.5996 -22.7998v-133.9c0 -29 7.7002 -60.2998 21.5996 -88c14.7998 -29.3994 34.9004 -52.2002 58.1006 -65.7002l80.6992 -46.6992c6.90039 -4 14.9004 -6.10059 23.2002 -6.10059
s16.2998 2.10059 23.2002 6.10059l58.0996 33.5c1.5 0.899414 3.2002 1.2998 5.10059 1.2998c3.59961 0 7 -2 8.89941 -5.10059c1.40039 -2.39941 1.7002 -5.09961 1 -7.69922c-0.699219 -2.60059 -2.39941 -4.7002 -4.7998 -6.2002l-58.0996 -33.5
c-10 -5.7002 -21.5 -8.7002 -33.2998 -8.7002zM353.2 120.1c0 -2.2998 -0.600586 -4.19922 -1.7002 -5.59961c-1.2002 -1.40039 -3.2002 -2.09961 -6.2002 -2.09961h-75.7998c-16.7002 0 -30.9004 2.39941 -42.7998 7.09961c-11.9004 4.7002 -21 11.5 -27.5 20.2998
c-2.7002 -5.7002 -6.2002 -10.7002 -10.5 -15.0996c-4.2998 -4.40039 -9.60059 -8.2002 -16 -11.2998c-2.7002 -1.5 -5.10059 -2.30078 -7.10059 -2.40039s-3.7998 1.09961 -5.2998 3.7002c-1.2002 2.2998 -1.5 4.5 -0.799805 6.59961
c0.700195 2.10059 2.7998 4.10059 6.5 6c3 1.60059 5.90039 3.5 8.7002 5.60059c2.7998 2.09961 5.39941 4.5 7.5 7.19922c2.2002 2.7002 3.89941 5.7002 5.2002 8.80078c1.2998 3.19922 1.89941 6.69922 1.89941 10.6992v63.8008c0 1.7998 -0.700195 2.59961 -2 2.59961
h-20.7002c-2.7998 0 -4.89941 0.599609 -6.09961 1.90039c-1.2002 1.2998 -1.7998 3.19922 -1.7998 5.7998c0 2.7002 0.5 4.7002 1.59961 6c1.10059 1.2998 3.2002 1.89941 6.2998 1.89941h24.8008c2.59961 0 4.69922 -0.199219 6.39941 -0.5
c1.7002 -0.299805 3 -1.09961 4.10059 -2.19922c1 -1.2002 1.69922 -2.80078 2.09961 -5.10059c0.400391 -2.2002 0.599609 -5.2002 0.599609 -8.7998v-63.4004c2.30078 -10.1992 8.60059 -18.2998 19 -24.5c10.4004 -6.19922 24.3008 -9.19922 41.8008 -9.19922h79.8994
c3 0 5 -0.700195 6.2002 -2.10059c1.09961 -1.5 1.7002 -3.39941 1.7002 -5.7002zM212.7 259.6c-1.90039 -1.7998 -4 -2.59961 -6.2998 -2.5c-2.30078 0.100586 -5.2002 1.80078 -8.5 5.2002c-1.90039 1.7998 -4 3.7002 -6.40039 5.7998
c-2.40039 2.10059 -4.7002 4.10059 -7.09961 6c-2.40039 1.90039 -4.60059 3.7002 -6.80078 5.30078c-2.19922 1.59961 -3.89941 2.89941 -5.09961 3.89941c-3.2998 2.40039 -5.09961 4.7002 -5.5 6.90039s0.200195 4.2002 1.7998 6.09961
c1.7998 2.2002 3.7002 3.2002 5.7002 2.90039c2 -0.200195 4.7002 -1.5 8.09961 -3.7998c1.60059 -1.2002 3.60059 -2.7002 5.90039 -4.40039s4.7002 -3.59961 7.09961 -5.59961c2.40039 -2 4.90039 -4.10059 7.30078 -6.2002c2.39941 -2.10059 4.69922 -4.10059 6.89941 -6
c3 -2.60059 4.60059 -5.10059 4.90039 -7.60059s-0.400391 -4.5 -2 -6zM238.7 156.5c0 -1.2002 0.200195 -2 0.5 -2.2002c0.299805 -0.299805 1.2998 -0.200195 2.7002 0.200195c5.7998 1.59961 11.2998 3.40039 16.3994 5.40039c5.10059 2 9.90039 4.19922 14.5 6.59961
c7.5 4.09961 12.2998 3.59961 14.4004 -1.40039c1.2002 -2.69922 1.2998 -4.89941 0.200195 -6.59961c-1.10059 -1.7002 -3.60059 -3.59961 -7.5 -5.59961c-5 -2.7002 -10.9004 -5.30078 -17.8008 -7.80078c-6.7998 -2.5 -14.0996 -4.69922 -21.8994 -6.59961
c-6 -1.2002 -10.2998 -0.700195 -12.9004 1.5c-2.59961 2.2002 -4 7.2002 -4 14.9004v122.6c0 6.2002 1.10059 10.5996 3.40039 13.2002c2.2002 2.59961 6.5 3.89941 12.8994 3.89941h81.1006c6.2002 0 10.5996 -1.2998 13 -3.89941
c2.39941 -2.60059 3.7002 -7 3.7002 -13.2002v-52c0 -6.2002 -1.2002 -10.7002 -3.7002 -13.5c-2.40039 -2.7998 -6.7998 -4.2002 -13 -4.2002h-48.6006c4.90039 -4.2998 9.7002 -8.59961 14.4004 -12.7998s9.5 -8.40039 14.2002 -12.5996
c5.2002 3.09961 9.59961 6.09961 13.3994 9c3.80078 2.89941 7.40039 6.09961 10.8008 9.69922c5 5 9.39941 5.60059 13 1.80078c1.7998 -1.90039 2.5 -3.90039 2.09961 -5.90039c-0.299805 -2 -2 -4.5 -5 -7.5c-3.09961 -3.09961 -6.5 -6.09961 -10.2002 -8.7998
c-3.7002 -2.7998 -7.89941 -5.7002 -12.7998 -8.7998l23.7998 -22c3.10059 -3 4.7998 -5.60059 5.2002 -7.7002c0.299805 -2.2002 -0.299805 -4.2002 -1.90039 -6.10059c-3.69922 -4.09961 -8.39941 -3.2998 -14.1992 2.40039c-11.5 11.5 -23.6006 23 -36.2002 34.5
c-12.6006 11.5 -25.5 23.0996 -38.6006 34.9004h-11.5996v-51.4004h0.200195zM322.5 275.9c0 2.2998 -1 3.5 -2.7998 3.5h-78.5c-0.900391 0 -1.60059 -0.200195 -1.90039 -0.600586c-0.299805 -0.399414 -0.5 -1.39941 -0.5 -2.7998v-17.2998h83.7998v17.2002h-0.0996094z
M322.5 243.7h-83.7998v-20.7002h80.8994c0.900391 0 1.7002 0.200195 2.10059 0.700195c0.5 0.5 0.700195 1.5 0.700195 3.2002v16.7998h0.0996094z" />
    <glyph glyph-name="icon-search" unicode="&#x2815;" 
d="M464.8 -32c-2.7002 0 -5.2002 1 -7.09961 2.90039l-131.3 131.199l-1.30078 0.100586c-31.2998 -25.5 -70.7998 -39.6006 -111 -39.6006c-97.5996 0 -177 79.3008 -177 176.7c0 47.2002 18.4004 91.6006 51.8008 125c33.2998 33.2998 77.7998 51.7002 125.1 51.7002
s91.7998 -18.4004 125.2 -51.7998c33.3994 -33.4004 51.7998 -77.7998 51.7002 -125.101c0 -25.8994 -5.7002 -51 -16.8008 -74.6992l-0.0996094 -0.400391l0.0996094 0.299805c-0.0996094 -0.299805 -1.09961 -2.2002 -2.19922 -3.2998
c-1.40039 -1.5 -4.10059 -2.5 -7 -2.5c-2.90039 0 -5.5 0.900391 -7.30078 2.59961c-5 4.5 -1.89941 11.5 -1.7998 11.8008c9.90039 21.3994 15 43.7998 15 66.5c0 86.2998 -70.3994 156.5 -156.899 156.5c-86.4004 0 -156.7 -70.2002 -156.7 -156.5
c0 -86.3008 70.2998 -156.5 156.8 -156.5c38.5996 0 75.7998 14.3994 104.8 40.3994c0.100586 0.100586 1.10059 0.900391 2 1.60059c1.7998 1.09961 3.7002 1.7998 5.7002 1.7998c2.5 0 4.90039 -1 6.7998 -3l138.7 -138.4c1.90039 -1.89941 3 -4.5 2.90039 -7.2002
c0 -2.69922 -1.10059 -5.09961 -3 -7c-1.80078 -2.09961 -4.40039 -3.09961 -7.10059 -3.09961z" />
    <glyph glyph-name="icon-shop" unicode="&#x2816;" 
d="M440 -31.5h-368c-11 0 -20 9 -20 19.9004v154.699c0 5.30078 4 10 9.2998 10.3008c5.7998 0.399414 10.7002 -4.2002 10.7002 -10v-145c0 -5.5 4.5 -10 10 -10h348c5.5 0 10 4.5 10 10v144.699c0 5.30078 4 10 9.2998 10.3008
c5.7998 0.399414 10.7002 -4.2002 10.7002 -10v-155c0 -10.9004 -9 -19.9004 -20 -19.9004zM479.7 246.6c0.0996094 -0.5 0.200195 -1.09961 0.299805 -1.69922c0 -27.5 -22.4004 -49.8008 -50 -49.8008h-2.7998c-17.6006 0 -33.2002 8.5 -42.7998 21.8008
c-9.60059 -13.2002 -25.2002 -21.8008 -42.8008 -21.8008v0c-17.5996 0 -33.1992 8.5 -42.7998 21.8008c-9.59961 -13.2002 -25.2002 -21.8008 -42.7998 -21.8008v0c-17.5996 0 -33.2002 8.5 -42.7998 21.8008c-9.60059 -13.2002 -25.2002 -21.8008 -42.7998 -21.8008v0
c-17.6006 0 -33.2002 8.5 -42.8008 21.8008c-9.59961 -13.2002 -25.1992 -21.8008 -42.7998 -21.8008h-2.7998c-27.5 0 -49.9004 22.3008 -50 49.7002c0 0.700195 0.0996094 1.40039 0.200195 2.10059l19.7998 113.699v25c0 16.5 13.4004 29.9004 30 29.9004h347.9
c16.5996 0 30 -13.4004 30 -29.9004v-25zM72 380.6v-11h52.5h6h79.5996h6h79.6006h6h79.5996h6h52.6006v11c0 8.2002 -6.7002 14.9004 -15 14.9004h-337.9c-8.2998 0 -15 -6.59961 -15 -14.9004zM429.9 215c16.0996 0 29.3994 12.7998 29.8994 28.7998
c0.100586 0.200195 0 0.400391 0 0.600586l-18.2998 105.3h-0.5h-46.5996h-20h-65.6006h-20h-65.5996h-20h-65.6006h-20h-45.0996h-2.09961l-18.4004 -105.3v-0.600586c0.599609 -15.8994 13.7998 -28.7998 30 -28.7998h2.7002c13.8994 0 25.7002 8.5 30.5 20.5996
c2 5.10059 6.7998 8.5 12.2998 8.5s10.2998 -3.39941 12.2998 -8.5c4.7998 -12 16.7002 -20.5996 30.5 -20.5996v0c13.9004 0 25.7002 8.5 30.5 20.5996c2 5.10059 6.7998 8.5 12.2998 8.5s10.3008 -3.39941 12.3008 -8.5c4.7998 -12 16.6992 -20.5996 30.5 -20.5996v0
c13.8994 0 25.6992 8.5 30.5 20.5996c2 5.10059 6.7998 8.5 12.2998 8.5s10.2998 -3.39941 12.2998 -8.5c4.7998 -12 16.7002 -20.5996 30.5 -20.5996v0c13.9004 0 25.7002 8.5 30.5 20.5996c2 5.10059 6.7998 8.5 12.2998 8.5s10.2998 -3.39941 12.2998 -8.5
c4.80078 -12 16.7002 -20.5996 30.5 -20.5996h2.80078z" />
    <glyph glyph-name="icon-spanner" unicode="&#x2817;" 
d="M418.4 -32c-15.7002 0 -31.6006 6.09961 -43.6006 18.0996l-117.7 117.5c-60.3994 -25.2998 -131 -11.5996 -177.6 35c-48.2998 48.4004 -61.2002 122.4 -32.0996 184.301c1.39941 2.89941 4.09961 5 7.2998 5.59961s6.5 -0.400391 8.7998 -2.59961l89.7998 -85.7002
l0.200195 -0.200195c5 -5 13.2998 -5 18.4004 0l40.1992 40.2002c2.40039 2.39941 3.80078 5.7002 3.80078 9.2002s-1.30078 6.69922 -3.7002 9.09961l-89.7998 85.7002c-2.40039 2.2998 -3.5 5.59961 -3 8.89941c0.5 3.2002 2.59961 6.10059 5.59961 7.5
c61.9004 29.2002 136 16.2002 184.3 -32.0996c37.2002 -37.2002 54.1006 -90.4004 45.2998 -142.3c-0.899414 -5.40039 -6.19922 -9.2002 -11.5996 -8.2998c-5.40039 0.899414 -9.2002 6.19922 -8.2998 11.5996c7.7998 45.5 -7.10059 92.0996 -39.6006 124.7
c-38.7998 38.7998 -96.5 51.5 -147.399 33.7998l78.5996 -75.0996l0.200195 -0.200195c12.9004 -12.9004 12.9004 -34 0 -46.9004l-40.2002 -40.2002c-6.2998 -6.2998 -14.5996 -9.69922 -23.5 -9.69922c-8.7998 0 -17.0996 3.39941 -23.3994 9.59961l-79.1006 75.5996
c-18.0996 -51.1992 -5.2998 -109.199 33.6006 -148.199c42.3994 -42.4004 107.1 -53.7002 161.3 -28.1006c3.7998 1.7998 8.5 1 11.3994 -2l122.601 -122.6c16.0996 -16.1006 42.5 -16.1006 58.5996 0c16.1006 16.0996 16.1006 42.5 0 58.5996l-115.6 115.7
c-3.90039 3.90039 -3.90039 10.2998 0 14.2002c3.89941 3.89941 10.2998 3.89941 14.2002 0l115.6 -115.601c24 -24 24 -63.0996 0 -87.1992c-12 -11.9004 -27.7998 -17.9004 -43.5996 -17.9004z" />
    <glyph glyph-name="icon-spinner" unicode="&#x2818;" 
d="M116.685 214.631c8.80664 -8.75586 13.21 -19.3027 13.21 -31.6416c0 -12.2881 -4.40332 -22.8867 -13.21 -31.6416c-8.80664 -8.75586 -19.4043 -13.1074 -31.7949 -13.1074s-22.9893 4.35156 -31.7949 13.1582c-8.80664 8.75488 -13.21 19.3027 -13.21 31.6416
c0 12.2881 4.40332 22.8867 13.21 31.6416c8.85742 8.80664 19.4043 13.1582 31.7949 13.1582s22.9883 -4.40332 31.7949 -13.209zM173.927 343.348c9.67676 -9.62598 14.54 -21.248 14.54 -34.8672c0 -13.6201 -4.8125 -25.2422 -14.54 -34.8672
c-9.72852 -9.62598 -21.3506 -14.4385 -35.0215 -14.4385c-13.6699 0 -25.3438 4.8125 -35.0205 14.4385c-9.67676 9.625 -14.541 21.2471 -14.541 34.8672c0 13.6191 4.81348 25.2412 14.4902 34.8672c9.67676 9.625 21.3496 14.4375 35.0205 14.4375
c13.6699 0 25.4463 -4.86328 35.0723 -14.4375zM167.476 86.1182c7.98633 -7.83301 11.9297 -17.3564 11.9297 -28.5693s-3.99414 -20.7363 -11.9297 -28.5693c-7.9873 -7.83398 -17.5107 -11.7246 -28.5703 -11.7246c-11.2637 0 -20.8379 3.94238 -28.6719 11.7754
c-7.88477 7.83398 -11.8271 17.3564 -11.8271 28.5693c0 11.1621 3.94238 20.6855 11.8271 28.5703c7.88477 7.83301 17.459 11.7754 28.6719 11.7754c11.0596 -0.0507812 20.6338 -3.94238 28.5703 -11.8271zM303.309 400.333
c10.4961 -10.4453 15.7695 -23.1426 15.7695 -38.0928s-5.27344 -27.5967 -15.7695 -38.0928s-23.2959 -15.7188 -38.2979 -15.7188c-15.001 0 -27.75 5.22266 -38.2461 15.7188c-10.4961 10.4443 -15.7695 23.1426 -15.7695 38.0928s5.27344 27.6475 15.7695 38.0928
c10.4961 10.4443 23.2451 15.667 38.2461 15.667c15.002 0 27.751 -5.22266 38.2979 -15.667zM290.509 29.1836c7.01465 -7.01367 10.5469 -15.4619 10.5469 -25.3438s-3.48145 -18.3291 -10.5469 -25.3438s-15.5137 -10.4961 -25.498 -10.4961
c-9.93262 0 -18.4316 3.48145 -25.4971 10.4961c-7.01465 7.01465 -10.5469 15.4619 -10.5469 25.3438s3.53223 18.3301 10.5469 25.3438c7.01465 7.01465 15.5137 10.4961 25.4971 10.4961c9.93359 0 18.4326 -3.53223 25.498 -10.4961zM413.286 79.7188
c6.19531 -6.19531 9.26758 -13.5176 9.26758 -22.1191s-3.07227 -15.9736 -9.26758 -22.1182c-6.19531 -6.14355 -13.5674 -9.21582 -22.2207 -9.21582c-8.65234 0 -16.0254 3.07227 -22.2207 9.21582c-6.19531 6.19531 -9.26758 13.5166 -9.26758 22.1182
s3.07227 15.9238 9.26758 22.1191c6.19531 6.14355 13.5684 9.21582 22.2207 9.21582c8.65332 0 16.0771 -3.07227 22.2207 -9.21582zM406.989 324.301c4.35156 -4.35156 6.60449 -9.67676 6.60449 -15.8203c0 -6.14453 -2.20215 -11.418 -6.60449 -15.8213
c-4.40332 -4.35156 -9.72852 -6.60449 -15.9238 -6.60449s-11.4688 2.20117 -15.9229 6.60449s-6.60449 9.67676 -6.60449 15.8213c0 6.14355 2.15039 11.417 6.60449 15.8203c4.40332 4.40332 9.72754 6.60449 15.9229 6.60449s11.5205 -2.20117 15.9238 -6.60449z
M464.281 202.086c5.27441 -5.27344 7.88477 -11.5703 7.88477 -19.0459s-2.61035 -13.8242 -7.88477 -19.0469c-5.27344 -5.27344 -11.6221 -7.83301 -19.1484 -7.83301s-13.875 2.61133 -19.1484 7.83301c-5.27441 5.22266 -7.83398 11.5713 -7.83398 19.0469
s2.61133 13.8242 7.83398 19.0459c5.27344 5.22266 11.6221 7.83398 19.1484 7.83398s13.875 -2.66211 19.1484 -7.83398z" />
    <glyph glyph-name="icon-trunk" unicode="&#x2819;" 
d="M471 192.7c5.7998 -7.2002 9 -16.2002 9.09961 -25.5v-97.2998c0 -5.60059 -4.59961 -10.2002 -10.1992 -10.2002c-5.60059 0 -10.2002 4.59961 -10.2002 10.2002v97.2998c0 4.7002 -1.5 9.09961 -4.40039 12.7002l-0.0996094 0.0996094l-68.7002 86.9004
c-3.7998 4.69922 -9.59961 7.5 -15.7998 7.5h-65.7002c-11.2998 0 -20.4004 9.19922 -20.4004 20.3994v39.7002c0 5.59961 -4.59961 10.2002 -10.1992 10.2002h-211.801c-5.59961 0 -10.1992 -4.60059 -10.1992 -10.2002v-264.6
c0 -5.60059 -4.60059 -10.2002 -10.2002 -10.2002c-5.60059 0 -10.2002 4.59961 -10.2002 10.2002v264.6c0 16.7998 13.7002 30.5 30.5 30.5h211.8c16.7998 0 30.5 -13.7002 30.5 -30.5v-39.7002h65.7002c12.5 0 24 -5.5 31.7998 -15.2002zM382.5 120.8
c28 0 50.9004 -22.7998 50.9004 -50.8994c0 -28.1006 -22.8008 -50.9004 -50.9004 -50.9004c-24.5996 0 -45.2002 17.5996 -49.9004 40.7998c-0.299805 -0.0996094 -0.699219 -0.0996094 -1 -0.0996094h-150.5c-0.299805 0 -0.699219 0.0996094 -1 0.0996094
c-4.69922 -23.2998 -25.2998 -40.7998 -49.8994 -40.7998c-28.1006 0 -50.9004 22.7998 -50.9004 50.9004c0 28.0996 22.7998 50.8994 50.9004 50.8994c24.5996 0 45.2002 -17.5996 49.8994 -40.7998c0.300781 0.0996094 0.700195 0.0996094 1 0.0996094h150.5
c0.300781 0 0.700195 -0.0996094 1 -0.0996094c4.7002 23.2998 25.3008 40.7998 49.9004 40.7998zM130.2 39.4004c16.8994 0 30.5996 13.5996 30.5 30.5c0 16.7998 -13.7002 30.5 -30.5 30.5s-30.5 -13.7002 -30.5 -30.5c0 -16.8008 13.7002 -30.5 30.5 -30.5z
M382.5 39.4004c16.7998 0 30.5 13.6992 30.5 30.5c0 16.7998 -13.7002 30.5 -30.5 30.5s-30.5 -13.7002 -30.5 -30.5c0 -16.8008 13.7002 -30.5 30.5 -30.5zM168.5 296.8c5.59961 0 10.2002 -4.5 10.2002 -10.2002v-104.8h79.5c5.59961 0 10.2002 -4.59961 10.2002 -10.2002
c0 -5.59961 -4.60059 -10.1992 -10.2002 -10.1992h-79.5c-11.2998 0 -20.4004 9.19922 -20.4004 20.3994v104.8c0 5.60059 4.60059 10.2002 10.2002 10.2002z" />
    <glyph glyph-name="icon-user" unicode="&#x281a;" 
d="M255.9 416c69.8994 0 126.399 -56.7002 126.399 -126.6c0 -69.9004 -56.5996 -126.601 -126.5 -126.601v0c-104.899 -1.2998 -185 -82.8994 -185 -185c0 -5.39941 -4.2998 -9.7002 -9.7002 -9.7002c-5.39941 0 -9.69922 4.30078 -9.69922 9.7002
c0 94.2998 63.8994 173.5 150.899 197.101c-43.2002 20.1992 -73 63.7998 -73 114.5c0 69.8994 56.7998 126.6 126.601 126.6zM255.9 182.3c59.1992 0 107.199 47.7998 107.199 107.101c0 59.2998 -48.0996 107.199 -107.199 107.199
c-59.1006 0 -107.2 -47.7998 -107.2 -107.1s48 -107.2 107.2 -107.2zM384.8 136.5c46.1006 -37.4004 75.6006 -94.5996 75.7998 -158.7c0 -5.39941 -4.2998 -9.7002 -9.69922 -9.7002c-5.40039 0 -9.7002 4.30078 -9.7002 9.7002c0 58.6006 -27.2998 110.7 -69.7002 144.601
v0c-1.7998 1.59961 -2.90039 4.19922 -2.90039 6.89941c0 5.2998 4.2002 9.7002 9.7002 9.7002c2.5 0 4.7002 -1 6.5 -2.5v0z" />
    <glyph glyph-name="icon-woman" unicode="&#x281b;" 
d="M308.4 137.9c6.5 -1.40039 20.7998 -25 20.7998 -25s4.2998 -2.60059 65.2002 -26c57.2998 -18.7002 73.2998 -62.2002 77.5 -91.2002c2.89941 -22.5 -4.5 -27.7998 -24.8008 -27.7998h-193.6h-4.2998h-184.3c-14 0 -27.2002 6.09961 -25.1006 27.7998
c4.10059 29 19.4004 72.3994 74.4004 91.2002c58.5 23.3994 62.7002 26 62.7002 26s13.6992 23.6992 20 25c6.2998 1.59961 0.899414 10.7998 0 13.2998c-0.700195 2 -5.90039 1 -8 16c-7.90039 -11.6006 -28.1006 -10.2998 -86.2002 -9.40039
c52.2002 21.7998 40 50.6006 53 159.5c12 98.4004 82.2998 99.4004 95.7998 98.6006c14.2998 0.799805 87.4004 -0.200195 99.7998 -98.6006c13.6006 -108.899 0.700195 -137.7 55.2998 -159.5c-60.5996 -0.799805 -81.5996 -2.2002 -89.6992 9.40039
c-2.40039 -15 -7.60059 -14 -8.40039 -16c-1.2998 -2.5 -6.7998 -11.7002 -0.0996094 -13.2998z" />
  </font>
</defs>
</svg>
