<?xml version="1.0" encoding="utf-8"?>
<!-- Generator: Adobe Illustrator 19.0.0, SVG Export Plug-In . SVG Version: 6.00 Build 0)  -->
<svg version="1.1" id="图层_1" xmlns="http://www.w3.org/2000/svg" xmlns:xlink="http://www.w3.org/1999/xlink" x="0px" y="0px"
	 viewBox="-63 119.3 484.1 555.7" style="enable-background:new -63 119.3 484.1 555.7;" xml:space="preserve">
<style type="text/css">
	.st0{fill:#007CC2;}
	.st1{fill:#0084C8;}
	.st2{fill:#0095D4;}
	.st3{fill:#16A0DC;}
	.st4{fill:#00B8EE;}
	.st5{fill:#F08800;}
</style>
<g>
	<path class="st0" d="M207.8,120.9c99.2,9.6,174.3,90.2,164.9,205.4C360.3,479.1,279.3,457,170.4,527
		C54.6,601.5-44.3,439.8-22.5,302.9C-1.5,170.9,78.7,108.4,207.8,120.9"/>
	<path class="st1" d="M208.1,150.7c79.5,7.7,139.6,72.3,132.1,164.6c-9.9,122.4-74.8,104.7-162.1,160.8
		c-92.9,59.7-172-69.8-154.6-179.5C40.4,190.8,104.6,140.7,208.1,150.7"/>
	<path class="st2" d="M211.8,176.7c62.6,6,110,56.9,104.1,129.6c-7.8,96.4-58.9,82.5-127.6,126.7c-73.1,47-135.5-55-121.7-141.4
		C79.7,208.2,130.3,168.8,211.8,176.7"/>
	<path class="st3" d="M218.9,196.6c47,4.5,82.6,42.8,78.2,97.4c-5.9,72.4-44.3,62-95.9,95.1c-54.9,35.3-101.8-41.3-91.5-106.2
		C119.7,220.3,157.7,190.7,218.9,196.6"/>
	<path class="st4" d="M224.6,212.5c34.6,3.3,60.7,31.5,57.5,71.6c-4.3,53.3-32.5,45.6-70.5,70c-40.4,26-74.9-30.4-67.3-78.1
		C151.7,230,179.6,208.2,224.6,212.5"/>
	<path class="st0" d="M51.2,649.2c0,7.9-3.3,14-9.9,18.2c-7.3,4.7-18.6,7.1-33.8,7.1h-26.8c-11.3,0-20.4-1.4-27.4-4.1
		c-5.9-2.3-10.2-5.6-13-9.8c-2.2-3.4-3.3-7.2-3.3-11.3v-43.5c0-9.2,4.3-15.9,12.9-20.1c7.3-3.6,17.5-5.4,30.7-5.4H7.5
		c16.2,0,27.6,2.1,34.2,6.2c6.3,3.9,9.5,10.4,9.5,19.4V649.2z M34,648.8v-42.6c0-4.3-2.2-7.3-6.5-9.1c-4.3-1.8-10.9-2.8-19.7-2.8
		h-27.3c-8.5,0-14.9,0.9-19.2,2.6c-4.7,2-7.1,5-7.1,9.2v42.6c0,4.2,2.3,7.2,6.8,9c4.2,1.7,10.7,2.5,19.4,2.5H7.8
		c8.4,0,14.8-0.8,18.9-2.4C31.6,656,34,653,34,648.8"/>
	<path class="st0" d="M188.2,664.4c0,4.4-1.1,7.3-3.4,8.9c-1.6,1.1-4.3,1.7-8,1.7c-1.4,0-3.2-0.7-5.2-2.2c-0.6-0.5-1.5-1.2-2.7-2.2
		l-80.3-68.3v66.1c0,4.1-2,6.1-6.1,6.1h-5.1c-4,0-6-2-6-6.1v-78.7v-3.4c0-1.2,0.4-2.2,1.2-3.2c0.8-0.9,1.9-1.8,3.2-2.6
		c0.6-0.4,1.3-0.7,2.1-0.9c0.8-0.2,1.5-0.3,2.3-0.3c2.4,0,5,0.8,7.9,2.5c0.9,0.5,2.1,1.4,3.6,2.5l79.3,67.5v-65.7c0-4,2-6,6.1-6h5
		c4.1,0,6.1,2,6.1,6L188.2,664.4L188.2,664.4z"/>
	<path class="st5" d="M310.8,638.7c0,1.8-0.4,3.3-1.2,4.7c-0.8,1.4-1.9,2.1-3.4,2.1h-81.3c0,10.2,7.1,15.3,21.2,15.3h12.2
		c4,0,6,2,6,6.1v1.5c0,4.1-2,6.1-6,6.1h-10.5c-7.4,0-13.7-0.6-18.8-1.8c-5.1-1.2-9.1-2.9-12-5c-6-4.8-9.1-10.3-9.1-16.6v-27.3
		c0-7.3,3.5-13,10.5-17.2s16.6-6.3,28.6-6.3h30.6c9.2,0,16.8,1.7,22.9,5.1c6.7,3.7,10.1,8.9,10.1,15.5v17.8H310.8z M294.9,631.3
		v-9.1c0-2.1-2.2-4-6.6-5.6s-9.5-2.5-15.5-2.5h-23.7c-7.1,0-12.8,0.7-17.2,2c-5,1.5-7.5,3.8-7.5,6.7v8.5H294.9z"/>
	<path class="st5" d="M417.7,663.5c1.2,0.8,2,1.7,2.6,2.7c0.5,1,0.8,1.9,0.8,3c0,1.5-0.6,2.8-1.9,3.8s-3,1.5-5.1,1.5h-4.9
		c-0.4,0-1.1-0.1-1.8-0.3c-0.8-0.2-1.4-0.5-1.8-0.8l-36.5-26.7l-37,26.7c-0.3,0.2-0.9,0.4-1.7,0.7c-0.9,0.3-1.5,0.4-1.8,0.4h-5.1
		c-2.1,0-3.8-0.5-5.1-1.6c-1.3-1-1.9-2.3-1.9-3.8c0-1,0.3-1.9,0.9-2.9s1.4-1.9,2.6-2.7l36.4-26.1l-36-26.1c-1.2-0.8-2-1.7-2.6-2.7
		c-0.5-1-0.8-1.9-0.8-3c0-1.5,0.6-2.8,1.9-3.8s3-1.5,5.1-1.5h5.2c0.4,0,1,0.1,1.8,0.4c0.8,0.2,1.4,0.5,1.8,0.8l36.4,26.7l35.6-26.6
		c0.3-0.2,0.9-0.5,1.7-0.8c0.8-0.3,1.5-0.4,1.9-0.4h4.9c2.1,0,3.8,0.5,5,1.6c1.3,1,1.9,2.3,1.9,3.8c0,1-0.3,2-0.8,2.9
		c-0.5,1-1.4,1.9-2.5,2.7l-35.2,26L417.7,663.5z"/>
</g>
</svg>
