<?xml version="1.0" encoding="utf-8"?>
<svg version="1.1" xmlns="http://www.w3.org/2000/svg" xmlns:xlink="http://www.w3.org/1999/xlink" x="0px" y="0px"
	 viewBox="0 0 512 512" style="enable-background:new 0 0 512 512;" xml:space="preserve">
<style type="text/css">
	.st0{opacity:0.8;fill:#FFFFFF;}
	.st1{opacity:0.9;fill:#FFFFFF;}
	.st2{opacity:0.7;fill:#FFFFFF;}
	.st3{fill:#FFFFFF;}
	.st4{opacity:0.6;fill:#FFFFFF;}
	.st5{opacity:0.5;fill:#FFFFFF;}
	.st6{opacity:0.3;fill:#FFFFFF;}
	.st7{opacity:0.4;fill:#FFFFFF;}
</style>
<g>
<path class="st0" d="M117.6,224.4c8.8,8.8,13.1,19.3,13.1,31.6c0,12.3-4.4,22.9-13.1,31.6c-8.8,8.8-19.3,13.2-31.6,13.2
	s-22.8-4.4-31.6-13.2c-8.8-8.8-13.1-19.3-13.1-31.6c0-12.3,4.4-22.9,13.1-31.6c8.8-8.8,19.3-13.2,31.6-13.2S108.9,215.6,117.6,224.4
	z"/>
<path class="st1" d="M174.5,95.7c9.6,9.6,14.4,21.2,14.4,34.9c0,13.6-4.8,25.2-14.4,34.8c-9.6,9.6-21.2,14.4-34.8,14.4
	c-13.6,0-25.2-4.8-34.8-14.4c-9.6-9.6-14.4-21.2-14.4-34.8c0-13.6,4.8-25.2,14.4-34.9c9.6-9.6,21.2-14.4,34.8-14.4
	C153.3,81.3,164.9,86.1,174.5,95.7z"/>
<path class="st2" d="M168.1,352.9c7.9,7.8,11.9,17.3,11.9,28.6s-4,20.7-11.9,28.6s-17.4,11.7-28.4,11.7c-11.2,0-20.7-4-28.5-11.8
	c-7.8-7.8-11.8-17.3-11.8-28.6c0-11.2,3.9-20.7,11.8-28.6c7.8-7.8,17.3-11.8,28.5-11.8C150.7,341.1,160.2,345.1,168.1,352.9z"/>
<path class="st3" d="M303,38.7c10.4,10.4,15.7,23.2,15.7,38.1s-5.2,27.6-15.7,38.1c-10.4,10.5-23.1,15.7-38,15.7
	c-14.9,0-27.6-5.2-38-15.7c-10.4-10.4-15.7-23.1-15.7-38.1s5.2-27.6,15.7-38.1S250,23,264.9,23C279.8,23,292.5,28.3,303,38.7z"/>
<path class="st4" d="M290.3,409.9c7,7,10.5,15.4,10.5,25.3c0,9.9-3.5,18.3-10.5,25.3c-7,7-15.4,10.5-25.3,10.5
	c-9.9,0-18.3-3.5-25.3-10.5c-7-7-10.5-15.4-10.5-25.3c0-9.9,3.5-18.3,10.5-25.3c7-7,15.4-10.5,25.3-10.5
	C274.8,399.4,283.3,402.9,290.3,409.9z"/>
<path class="st5" d="M412.3,359.3c6.2,6.2,9.2,13.5,9.2,22.1c0,8.6-3.1,16-9.2,22.1c-6.1,6.2-13.5,9.2-22.1,9.2s-15.9-3.1-22.1-9.2
	c-6.2-6.2-9.2-13.5-9.2-22.1c0-8.6,3.1-15.9,9.2-22.1c6.1-6.2,13.5-9.2,22.1-9.2S406.1,353.2,412.3,359.3z"/>
<path class="st6" d="M406,114.7c4.3,4.4,6.5,9.7,6.5,15.8c0,6.2-2.2,11.4-6.5,15.8c-4.4,4.4-9.7,6.6-15.8,6.6
	c-6.2,0-11.4-2.2-15.8-6.6c-4.4-4.4-6.5-9.7-6.5-15.8c0-6.2,2.2-11.4,6.5-15.8c4.4-4.4,9.7-6.6,15.8-6.6
	C396.3,108.1,401.6,110.4,406,114.7z"/>
<path class="st7" d="M462.9,237c5.2,5.3,7.8,11.6,7.8,19s-2.6,13.8-7.8,19c-5.2,5.3-11.6,7.8-19,7.8s-13.8-2.6-19-7.8
	c-5.2-5.2-7.8-11.6-7.8-19s2.6-13.8,7.8-19c5.2-5.2,11.6-7.8,19-7.8S457.7,231.8,462.9,237z"/>
<animateTransform
    attributeName="transform" attributeType="XML" type="rotate" from="0 256 256" to="360 256 256" begin="0s" dur="1.2s"
    repeatCount="indefinite"/>
</g>
</svg>
